

Release info:

General
Format                                   : Matroska
Format version                           : Version 2
File size                                : 716 MiB
Duration                                 : 2h 23mn
Overall bit rate                         : 699 Kbps

Video
ID                                       : 1
Format                                   : AVC
Format/Info                              : Advanced Video Codec
Format profile                           : High@L3.0
Format settings, CABAC                   : Yes
Format settings, ReFrames                : 4 frames
Muxing mode                              : Header stripping
Codec ID                                 : V_MPEG4/ISO/AVC
Duration                                 : 2h 23mn
Bit rate                                 : 570 Kbps
Width                                    : 720 pixels
Height                                   : 306 pixels
Display aspect ratio                     : 2.35:1
Frame rate mode                          : Constant
Frame rate                               : 23.976 fps
Color space                              : YUV
Chroma subsampling                       : 4:2:0
Bit depth                                : 8 bits
Scan type                                : Progressive
Bits/(Pixel*Frame)                       : 0.108
Stream size                              : 571 MiB (80%)
Language                                 : English
Default                                  : Yes
Forced                                   : No

Audio
ID                                       : 2
Format                                   : MPEG Audio
Format version                           : Version 1
Format profile                           : Layer 3
Mode                                     : Joint stereo
Mode extension                           : MS Stereo
Muxing mode                              : Header stripping
Codec ID                                 : A_MPEG/L3
Codec ID/Hint                            : MP3
Duration                                 : 2h 23mn
Bit rate mode                            : Constant
Bit rate                                 : 128 Kbps
Channel(s)                               : 2 channels
Sampling rate                            : 44.1 KHz
Compression mode                         : Lossy
Stream size                              : 131 MiB (18%)
Writing library                          : LAME3.98.2
Language                                 : English
Default                                  : Yes
Forced                                   : No

Text
ID                                       : 3
Format                                   : UTF-8
Codec ID                                 : S_TEXT/UTF8
Codec ID/Info                            : UTF-8 Plain Text
Language                                 : English
Default                                  : Yes
Forced                                   : No



Source:
credit to original movie ripper SPARKS (Thanks)

IMDB Info:

Bond's loyalty to M is tested as her past comes back to haunt her, bringing MI6 under attack.

Director: Sam Mendes
Writers: Neal Purvis, Robert Wade, 
Stars: Daniel Craig, Javier Bardem and Naomie Harris 

Genres: Action | Adventure | Crime | Thriller
 
http://www.imdb.com/title/tt1074638/

Screen Shot:
 
http://www.shotpix.com/images/45112396425729148234.png 
http://www.shotpix.com/images/87650662249558814047.png 
http://www.shotpix.com/images/94098617085439811015.png 
http://www.shotpix.com/images/28962905334588372044.png